<svg xmlns="http://www.w3.org/2000/svg" width="307.489" height="167.924" viewBox="0 0 307.489 167.924">
  <g id="Group_17" data-name="Group 17" transform="translate(-0.001 0)">
    <path id="Path_188" data-name="Path 188" d="M269.815,645.02q43.043-.508,86.083.582a28.422,28.422,0,0,1,7.21.8c2.18.654,3.857,2.056,3.261,3.4q-16.8.5-33.638.307c-2.444,1.2-5.128,3-3.626,4.615,1.039,1.117,3.605,1.45,5.849,1.453,4.064,0,8.145-.662,12.149-.271s8,2.5,6.826,4.684c-.891,1.66-4.27,2.482-7.345,2.629s-6.224-.158-9.23.235a66.94,66.94,0,0,0-8,2.022,74.426,74.426,0,0,1-13.491,1.68c-35.316,2.158-70.925,2.141-106.45,2.121-14.382-.008-28.959-.03-42.847-2.129-7.916-1.2-15.5-3.055-23.519-4.02-9.575-1.152-19.471-1-29.263-.961q-25.786.091-51.527-.994c-1.277-.054-2.845-.236-3.189-.929-.4-.809,1.23-1.44,2.61-1.763a151.543,151.543,0,0,1,23.775-3.546c4.055-.285,8.233-.43,11.962-1.369s6.987-2.907,6.952-5.2c-.011-.7-.306-1.45.278-2.068.776-.821,2.686-1.01,4.333-1.1,18.264-.993,36.628-1.407,54.976-1.241,6.454.059,12.934.188,19.342-.246,5.251-.356,10.394-1.088,15.568-1.7,6.946-.824,37.175-5.093,41.584-1.629,3.3,2.593-3.514,3.153,5.339,4.211C253.493,645.51,262,645.112,269.815,645.02Z" transform="translate(-59 -501.356)" fill="#f2f2f2"/>
    <path id="Path_189" data-name="Path 189" d="M394.528,574.734s-10.642,21.057-1.585,21.057,123.17.453,126.34-5.434c2.221-4.124,1-18.807.064-27.229a6.439,6.439,0,0,0-6.757-5.722c-24.68,1.362-116.878,6.41-116.477,5.78.792-1.245.226-.906.226-.906S392.717,573.828,394.528,574.734Z" transform="translate(-295.426 -442.914)" fill="#3f3d56"/>
    <path id="Path_190" data-name="Path 190" d="M533.632,563.128a6.439,6.439,0,0,0-6.757-5.722c-24.68,1.362-116.878,6.41-116.477,5.78.792-1.245.226-.906.226-.906s-.809,2.578-1.471,5.393c.094-.009.164.079-.142.617q-.041.182-.08.364c3.693.365,92.248-4.484,116.359-5.815a6.439,6.439,0,0,1,6.757,5.721c.693,6.262,1.547,15.983,1.027,22.253a1.354,1.354,0,0,0,.493-.459C535.788,586.233,534.564,571.55,533.632,563.128Z" transform="translate(-309.485 -442.914)" opacity="0.1"/>
    <path id="Path_191" data-name="Path 191" d="M393.549,471.177c-1.18-.361-2.673-.828-2.538-1.59.071-.4.613-.72,1-1.059.756-.654.96-1.574.148-2.206a3.36,3.36,0,0,0-3.484-.048c-.368.344-.346.775-.537,1.163-.594,1.211-3,1.743-5.035,2.213s-4.323,1.346-4.131,2.6c.209,1.367,3.356,2.579,2.09,3.744-.459.423-1.425.658-1.631,1.142-.145.34.146.686.428,1l2,2.208c.8.878,1.619,1.834,1.352,2.812-.529,1.938-4.832,2.68-8.242,2.462-1.249-.08-2.717-.189-3.575.336a1.17,1.17,0,0,0-.44,1.574c.566,1.388,2.376,2.59,4.692,3.116-2.6.512-3.616,2.671-1.823,3.861a5.335,5.335,0,0,1-3.179.091c-.887.816-.365,1.936.759,2.65a15.074,15.074,0,0,0,4.26,1.5l-1.444,1.35c1.045.816,3.3.528,4.822.013s3.172-1.208,4.876-.938c1.6.253,2.808,1.319,4.435,1.137a2.86,2.86,0,0,0,2.255-1.652l1.671-2.974c2.378.372,4.878-1.257,3.923-2.557,2.661.286,5.28-1.442,4.407-2.907a8.517,8.517,0,0,1,2.9,3.694,3.528,3.528,0,0,0,.945,1.728,3.139,3.139,0,0,0,2.746.5c-.485.941-.878,2.039.119,2.837s3.875.572,3.748-.406a13.836,13.836,0,0,0,5.125,1.316c1.9.049,3.98-.674,4.153-1.757a26.552,26.552,0,0,0,8.3,1.336c.24-.725,1.915-.959,3.168-.782a26.1,26.1,0,0,0,3.7.6c1.29,0,2.678-.776,2.017-1.409a26.67,26.67,0,0,0,8.266.417c2.6-.276,5.072-.933,7.708-1.075a18.412,18.412,0,0,1,7.847,1.239,4.537,4.537,0,0,0,2.889.534,3.449,3.449,0,0,0,1.166-.787c1.575-1.195,4.8-.966,7.28-.5s5.375,1.035,7.552.205c.821-.313,1.427-.8,2.3-1.06,3.13-.942,6.877,1.472,10.2.777a20.223,20.223,0,0,1,3.106-.834c2.033-.118,3.376,1.259,5.353,1.556,2.051.308,4.274-.94,3.774-2.118a18.41,18.41,0,0,0,5.821-.809l-.931-1.676c2.32-.037,4.027-1.7,2.952-2.876,2.326-.443,4.166-1.636,4.644-3.011s-.424-2.879-2.277-3.8c-1.094-.542-2.53-.923-3.155-1.669-.45-.537-.385-1.163-.56-1.75-.383-1.286-2.044-2.421-4.19-2.863a22.624,22.624,0,0,1-2.8-.562c-.844-.3-1.453-.94-.966-1.433a9.864,9.864,0,0,1,1.075-.652c1.3-.961-.93-2.178-2.835-2.717l4.55-.149.977-4.43c-1.8,1.464-6.47,1.156-7.639-.5a4.315,4.315,0,0,0,4.136-1.006,3.182,3.182,0,0,0,.348-2.844,1.38,1.38,0,0,0-.758-1.13c-.445-.212-1.155-.3-1.3-.621s.427-.617.513-.951c.164-.642-1.312-.925-2.309-1.236-2.352-.733-3.491-2.792-6.167-2.725a3.326,3.326,0,0,0-3.4,3.613,3.346,3.346,0,0,1-3.558,3.524,7.282,7.282,0,0,1-2.834-.758l-7.611-3.283a18.231,18.231,0,0,0-3.126-1.121,24.371,24.371,0,0,0-4.888-.438l-10.647-.242a4.96,4.96,0,0,0-1.615.139,3.026,3.026,0,0,0-1.168.871c-1.483,1.392-4.968,1.937-7.484,1.171-.667-.2-1.265-.484-1.971-.637-2.226-.482-4.562.41-6.875.733-3.792.529-8.5-.381-11.237,1.211-.911.531-1.395,1.257-2.239,1.823a4.151,4.151,0,0,1-3.434.522,4.011,4.011,0,0,1-.447,3.083,4.839,4.839,0,0,1-4.277,1.5c-.94-.248-.866-1.039-.421-1.573s1.127-1.081.9-1.66-1.226-.908-1.979-1.308-1.254-1.158-.455-1.527c-.539-.692-2.474-.608-3.326-.027A2.635,2.635,0,0,0,411,464.585a2.4,2.4,0,0,1-1.282,2.089c-1.681.862-4.91.415-6.025,1.537-.354.357-.375.787-.578,1.18-.9,1.756-4.81,2.211-8,2.354a3.917,3.917,0,0,0-.044,1.108C396.16,472.382,394.34,471.42,393.549,471.177Z" transform="translate(-281.764 -370.914)" fill="#61ab43"/>
    <path id="Path_192" data-name="Path 192" d="M839.722,496.926a3.182,3.182,0,0,1-.348,2.844,2.185,2.185,0,0,1-.358.339l2.884-.094.977-4.43a5.563,5.563,0,0,1-3.262.936A2.844,2.844,0,0,1,839.722,496.926Z" transform="translate(-617.346 -398.669)" opacity="0.1"/>
    <path id="Path_193" data-name="Path 193" d="M831.044,514.531c-.114-.6-1.1-1.206-2.206-1.641a4.492,4.492,0,0,1-3.118.274C826.526,514.309,829,514.81,831.044,514.531Z" transform="translate(-607.828 -411.056)" opacity="0.1"/>
    <path id="Path_194" data-name="Path 194" d="M837.778,530.021l-.075.339-4.55.149c1.905.54,4.137,1.756,2.835,2.717a9.888,9.888,0,0,0-1.075.652c-.487.493.122,1.136.966,1.433a22.6,22.6,0,0,0,2.8.562c2.146.443,3.807,1.578,4.19,2.863.175.587.109,1.213.56,1.75.625.746,2.061,1.127,3.155,1.669.105.052.207.107.306.163a4.134,4.134,0,0,0,1.971-2.061c.478-1.375-.424-2.879-2.277-3.8-1.094-.542-2.53-.923-3.155-1.669-.45-.537-.385-1.163-.56-1.75-.383-1.286-2.044-2.421-4.19-2.863C838.382,530.117,838.08,530.069,837.778,530.021Z" transform="translate(-613.149 -423.318)" opacity="0.1"/>
    <path id="Path_195" data-name="Path 195" d="M373.1,593.177a3.468,3.468,0,0,1,2.559-1.68,8.656,8.656,0,0,1-3.428-1.546,5.176,5.176,0,0,1-1.574-.2c-.887.816-.365,1.936.759,2.65A8.166,8.166,0,0,0,373.1,593.177Z" transform="translate(-281.763 -466.076)" opacity="0.1"/>
    <path id="Path_196" data-name="Path 196" d="M403.188,475.938a15.144,15.144,0,0,1,1.987-.592c2.04-.47,4.442-1,5.035-2.213.19-.388.168-.819.537-1.163a3.36,3.36,0,0,1,3.484.048c.812.631.608,1.552-.148,2.206-.392.339-.933.655-1,1.059-.135.761,1.358,1.228,2.538,1.59a5.015,5.015,0,0,1,1.536.81c.01-.081.02-.161.027-.241,3.192-.143,7.1-.6,8-2.354.2-.393.224-.824.578-1.18,1.115-1.123,4.343-.676,6.025-1.537a2.4,2.4,0,0,0,1.282-2.089,2.635,2.635,0,0,1,1.029-2.154c.852-.581,2.787-.665,3.326.027-.8.369-.3,1.127.455,1.527s1.759.734,1.979,1.308-.46,1.125-.9,1.66-.519,1.325.421,1.573a4.839,4.839,0,0,0,4.277-1.5,4.01,4.01,0,0,0,.447-3.083,4.15,4.15,0,0,0,3.434-.522c.845-.566,1.328-1.292,2.239-1.823,2.733-1.593,7.445-.683,11.237-1.211,2.313-.322,4.649-1.215,6.875-.733.707.153,1.3.433,1.971.637,2.516.767,6,.221,7.484-1.171a3.025,3.025,0,0,1,1.168-.871,4.958,4.958,0,0,1,1.615-.139l10.647.242a24.371,24.371,0,0,1,4.888.438,18.225,18.225,0,0,1,3.126,1.121l7.611,3.283a7.282,7.282,0,0,0,2.834.758,3.346,3.346,0,0,0,3.558-3.524,3.326,3.326,0,0,1,3.4-3.613c2.676-.067,3.815,1.992,6.167,2.725,1,.311,2.473.594,2.309,1.236-.076.3-.54.56-.536.845a3.5,3.5,0,0,0,1.734-.994,3.182,3.182,0,0,0,.348-2.844,1.38,1.38,0,0,0-.758-1.13c-.445-.212-1.155-.3-1.3-.621s.427-.616.513-.951c.164-.642-1.312-.925-2.309-1.236-2.352-.733-3.491-2.792-6.167-2.725a3.326,3.326,0,0,0-3.4,3.613,3.346,3.346,0,0,1-3.558,3.524,7.281,7.281,0,0,1-2.834-.758l-7.611-3.283a18.227,18.227,0,0,0-3.126-1.121,24.369,24.369,0,0,0-4.888-.438l-10.647-.242a4.96,4.96,0,0,0-1.615.139,3.026,3.026,0,0,0-1.168.871c-1.483,1.392-4.968,1.937-7.484,1.171-.667-.2-1.265-.483-1.971-.637-2.226-.482-4.562.41-6.875.733-3.792.529-8.5-.381-11.237,1.211-.911.531-1.395,1.257-2.239,1.823a4.151,4.151,0,0,1-3.434.522,4.01,4.01,0,0,1-.447,3.083,4.839,4.839,0,0,1-4.277,1.5c-.94-.249-.866-1.039-.421-1.573s1.127-1.081.9-1.66-1.226-.908-1.979-1.308-1.254-1.158-.455-1.527c-.539-.692-2.474-.608-3.326-.027a2.635,2.635,0,0,0-1.029,2.154,2.4,2.4,0,0,1-1.282,2.089c-1.682.862-4.91.415-6.025,1.537-.354.357-.375.787-.578,1.18-.9,1.756-4.81,2.211-8,2.354-.008.08-.018.16-.027.241a5.017,5.017,0,0,0-1.536-.81c-1.18-.361-2.673-.828-2.538-1.59.072-.4.613-.72,1-1.059.756-.654.96-1.574.148-2.206a3.36,3.36,0,0,0-3.484-.048c-.369.344-.346.775-.537,1.163-.594,1.211-3,1.743-5.035,2.213s-4.323,1.346-4.131,2.6C401.25,473.595,404.3,474.79,403.188,475.938Z" transform="translate(-303.831 -370.914)" opacity="0.1"/>
    <path id="Path_197" data-name="Path 197" d="M377.232,561.582a4.473,4.473,0,0,0-1.579.618c.306.013.61.033.9.052,3.41.218,7.713-.524,8.242-2.462.267-.978-.555-1.934-1.352-2.812l-.962-1.059a16.518,16.518,0,0,1-5.929.638c-1.249-.08-2.717-.189-3.575.336a1.17,1.17,0,0,0-.44,1.574C373.106,559.854,374.916,561.056,377.232,561.582Z" transform="translate(-283.341 -441.856)" opacity="0.1"/>
    <ellipse id="Ellipse_289" data-name="Ellipse 289" cx="33.962" cy="22.415" rx="33.962" ry="22.415" transform="translate(129.385 66.033)" fill="#ea565c"/>
    <path id="Path_198" data-name="Path 198" d="M563.682,428.469s-15.4,1.585-10.868-4.981,10.189-8.83,12.906-7.019,3.849,6.792,3.4,6.792-7.019-3.849-9.283-.906S563.682,428.469,563.682,428.469Z" transform="translate(-411.881 -341.605)" fill="#fff" opacity="0.2"/>
    <path id="Path_199" data-name="Path 199" d="M616.025,462.467s12.714,8.827,5,10.859-13.482.063-14.364-3.081,1.5-7.661,1.848-7.366,2.818,7.493,6.453,6.734S616.025,462.467,616.025,462.467Z" transform="translate(-450.885 -374.962)" fill="#fff" opacity="0.2"/>
    <path id="Path_200" data-name="Path 200" d="M650.543,415.061s1-15.445,6.723-9.886,7.008,11.518,4.77,13.9-7.339,2.663-7.264,2.217,4.965-6.279,2.44-9S650.543,415.061,650.543,415.061Z" transform="translate(-482.434 -333.088)" fill="#fff" opacity="0.2"/>
    <ellipse id="Ellipse_290" data-name="Ellipse 290" cx="33.962" cy="22.415" rx="33.962" ry="22.415" transform="translate(88.404 64.221)" fill="#ea565c"/>
    <path id="Path_201" data-name="Path 201" d="M419.476,422.094s-15.4,1.585-10.868-4.981,10.189-8.83,12.906-7.019,3.849,6.792,3.4,6.792-7.019-3.849-9.283-.906S419.476,422.094,419.476,422.094Z" transform="translate(-308.657 -337.043)" fill="#fff" opacity="0.2"/>
    <path id="Path_202" data-name="Path 202" d="M471.82,456.093s12.714,8.827,5,10.859-13.483.063-14.364-3.081,1.5-7.661,1.848-7.366,2.818,7.493,6.453,6.734S471.82,456.093,471.82,456.093Z" transform="translate(-347.66 -370.4)" fill="#fff" opacity="0.2"/>
    <path id="Path_203" data-name="Path 203" d="M506.337,408.687s1-15.445,6.723-9.886,7.008,11.518,4.77,13.895-7.339,2.663-7.263,2.217,4.965-6.279,2.44-9S506.337,408.687,506.337,408.687Z" transform="translate(-379.209 -328.525)" fill="#fff" opacity="0.2"/>
    <path id="Path_204" data-name="Path 204" d="M452.473,392.286c7.4,4.112,12.1,10.269,12.1,17.152,0,12.379-15.205,22.415-33.962,22.415a47.608,47.608,0,0,1-17.561-3.226,45.425,45.425,0,0,0,21.863,5.263c18.757,0,33.962-10.036,33.962-22.415C468.875,403.338,462.3,396.213,452.473,392.286Z" transform="translate(-312.433 -324.726)" opacity="0.1"/>
    <path id="Path_205" data-name="Path 205" d="M596.679,397.863c7.4,4.112,12.1,10.269,12.1,17.152,0,12.38-15.205,22.415-33.962,22.415a47.608,47.608,0,0,1-17.561-3.226,45.425,45.425,0,0,0,21.863,5.263c18.757,0,33.962-10.036,33.962-22.415C613.081,408.915,606.51,401.79,596.679,397.863Z" transform="translate(-415.658 -328.718)" opacity="0.1"/>
    <path id="Path_206" data-name="Path 206" d="M409.083,390.237s29.207-31.245,100.755-18.34c56.559,10.2,10.114,27.761-11.827,34.671a78.833,78.833,0,0,1-19.625,3.533C453.631,411.377,391.369,412.516,409.083,390.237Z" transform="translate(-307.356 -307.895)" fill="#714b4f"/>
    <path id="Path_207" data-name="Path 207" d="M498.015,430.534a78.833,78.833,0,0,1-19.625,3.533c-20.053,1.033-64.719,1.976-71.544-9.547-8.617,18.626,48.176,17.543,71.544,16.34a78.834,78.834,0,0,0,19.625-3.533c16.083-5.064,45.328-15.851,37.527-25.268C530.29,419.449,510.308,426.663,498.015,430.534Z" transform="translate(-307.36 -338.88)" opacity="0.1"/>
    <line id="Line_15" data-name="Line 15" x2="7.925" y2="15.623" transform="translate(164.104 64.116)" fill="none" stroke="#000" stroke-miterlimit="10" stroke-width="2" opacity="0.1"/>
    <line id="Line_16" data-name="Line 16" x2="6.792" y2="13.132" transform="translate(139.651 69.776)" fill="none" stroke="#000" stroke-miterlimit="10" stroke-width="2" opacity="0.1"/>
    <line id="Line_17" data-name="Line 17" x2="10.642" y2="15.623" transform="translate(178.368 64.116)" fill="none" stroke="#000" stroke-miterlimit="10" stroke-width="2" opacity="0.1"/>
    <line id="Line_18" data-name="Line 18" y1="9.057" x2="71.321" transform="translate(139.651 75.21)" fill="none" stroke="#000" stroke-miterlimit="10" stroke-width="2" opacity="0.1"/>
    <line id="Line_19" data-name="Line 19" x2="4.981" y2="7.019" transform="translate(208.255 67.059)" fill="none" stroke="#000" stroke-miterlimit="10" stroke-width="2" opacity="0.1"/>
    <line id="Line_20" data-name="Line 20" x2="3.17" y2="6.566" transform="translate(125.614 75.21)" fill="none" stroke="#000" stroke-miterlimit="10" stroke-width="2" opacity="0.1"/>
    <path id="Path_208" data-name="Path 208" d="M430.046,341.238s65.13-.295,65.728-.884,14.341-.9,17.029,2.929,3.585,5.6,0,6.188-121.6,60.993-121.6,60.993-6.573.589-3.286-5.893S430.046,341.238,430.046,341.238Z" transform="translate(-293.787 -287.298)" fill="#f6c964"/>
    <path id="Path_209" data-name="Path 209" d="M502.379,430.607c0,2.438-11.759,8.377-26.264,8.377s-26.264-5.939-26.264-8.377,11.759-3.4,26.264-3.4S502.379,428.169,502.379,430.607Z" transform="translate(-338.775 -349.725)" fill="#61ab43"/>
    <ellipse id="Ellipse_291" data-name="Ellipse 291" cx="26.264" cy="4.415" rx="26.264" ry="4.415" transform="translate(111.075 76.353)" fill="#61ab43"/>
    <path id="Path_210" data-name="Path 210" d="M613.919,416.266c0,2.438-11.759,8.377-26.264,8.377s-26.264-5.939-26.264-8.377,11.759-3.4,26.264-3.4S613.919,413.827,613.919,416.266Z" transform="translate(-418.617 -339.459)" fill="#61ab43"/>
    <ellipse id="Ellipse_292" data-name="Ellipse 292" cx="26.264" cy="4.415" rx="26.264" ry="4.415" transform="translate(142.773 72.278)" fill="#61ab43"/>
    <path id="Path_211" data-name="Path 211" d="M725.459,401.926c0,2.438-11.759,8.377-26.264,8.377s-26.264-5.939-26.264-8.377,11.759-3.4,26.264-3.4S725.459,399.487,725.459,401.926Z" transform="translate(-498.459 -329.195)" fill="#61ab43"/>
    <ellipse id="Ellipse_293" data-name="Ellipse 293" cx="26.264" cy="4.415" rx="26.264" ry="4.415" transform="translate(174.471 68.203)" fill="#61ab43"/>
    <path id="Path_212" data-name="Path 212" d="M407.736,284.813s-10.8-1.758-5.275-10.551,7.385-18.648,9.8-20.85c2.7-2.462,58.347-45.624,101.7,2.137a63.718,63.718,0,0,1,11.056,17.265,10.08,10.08,0,0,0,1.668,2.83c1.758,1.758,3.266,6.783,0,9.295S427.2,297.248,407.736,284.813Z" transform="translate(-303.726 -210.828)" fill="#3f3d56"/>
    <path id="Path_213" data-name="Path 213" d="M591.717,284.379a4.226,4.226,0,0,1-2.261.754c-1.249,0-2.261-.337-2.261-.754s1.012-.754,2.261-.754A4.226,4.226,0,0,1,591.717,284.379Z" transform="translate(-437.088 -246.945)" fill="#f2f2f2"/>
    <path id="Path_214" data-name="Path 214" d="M528.072,267.584a4.226,4.226,0,0,1-2.261.754c-1.249,0-2.261-.337-2.261-.754s1.012-.754,2.261-.754A4.226,4.226,0,0,1,528.072,267.584Z" transform="translate(-391.53 -234.923)" fill="#f2f2f2"/>
    <path id="Path_215" data-name="Path 215" d="M701.454,289.771a4.226,4.226,0,0,1-2.383.044c-1.192-.373-2.057-1-1.933-1.394s1.191-.417,2.383-.044A4.226,4.226,0,0,1,701.454,289.771Z" transform="translate(-515.779 -250.155)" fill="#f2f2f2"/>
    <path id="Path_216" data-name="Path 216" d="M583.887,244.689a4.226,4.226,0,0,1-2.383.044c-1.192-.373-2.057-1-1.933-1.394s1.191-.417,2.383-.044A4.226,4.226,0,0,1,583.887,244.689Z" transform="translate(-431.623 -217.885)" fill="#f2f2f2"/>
    <path id="Path_217" data-name="Path 217" d="M712.061,260.6a4.226,4.226,0,0,1-2.383.044c-1.192-.373-2.057-1-1.933-1.394s1.191-.417,2.383-.044a4.225,4.225,0,0,1,1.933,1.394Z" transform="translate(-523.372 -229.275)" fill="#f2f2f2"/>
    <path id="Path_218" data-name="Path 218" d="M685.416,260.512a4.226,4.226,0,0,1-2.261.754c-1.249,0-2.261-.337-2.261-.754s1.012-.754,2.261-.754A4.226,4.226,0,0,1,685.416,260.512Z" transform="translate(-504.159 -229.86)" fill="#f2f2f2"/>
    <path id="Path_219" data-name="Path 219" d="M609.4,244.6a4.226,4.226,0,0,1-2.261.754c-1.249,0-2.261-.337-2.261-.754s1.012-.754,2.261-.754A4.226,4.226,0,0,1,609.4,244.6Z" transform="translate(-449.743 -218.471)" fill="#f2f2f2"/>
    <path id="Path_220" data-name="Path 220" d="M667.736,244.6a4.226,4.226,0,0,1-2.261.754c-1.249,0-2.261-.337-2.261-.754s1.012-.754,2.261-.754A4.226,4.226,0,0,1,667.736,244.6Z" transform="translate(-491.505 -218.471)" fill="#f2f2f2"/>
    <path id="Path_221" data-name="Path 221" d="M645.638,279.075a4.226,4.226,0,0,1-2.261.754c-1.249,0-2.261-.337-2.261-.754s1.012-.754,2.261-.754A4.226,4.226,0,0,1,645.638,279.075Z" transform="translate(-475.686 -243.148)" fill="#f2f2f2"/>
    <path id="Path_222" data-name="Path 222" d="M592.75,266.938a4.225,4.225,0,0,1,1.185-2.068c.932-.831,1.912-1.253,2.189-.943s-.254,1.236-1.185,2.068a4.226,4.226,0,0,1-2.189.943Z" transform="translate(-441.065 -232.772)" fill="#f2f2f2"/>
    <path id="Path_223" data-name="Path 223" d="M552.971,257.215a4.226,4.226,0,0,1,1.185-2.068c.932-.831,1.912-1.253,2.189-.943s-.254,1.236-1.185,2.068a4.226,4.226,0,0,1-2.189.943Z" transform="translate(-412.591 -225.812)" fill="#f2f2f2"/>
    <path id="Path_224" data-name="Path 224" d="M484.023,304.949a4.226,4.226,0,0,1,1.185-2.068c.932-.831,1.912-1.253,2.189-.943s-.254,1.236-1.185,2.068A4.225,4.225,0,0,1,484.023,304.949Z" transform="translate(-363.237 -259.981)" fill="#f2f2f2"/>
    <path id="Path_225" data-name="Path 225" d="M636.948,251.911a4.226,4.226,0,0,1,1.185-2.068c.932-.831,1.912-1.253,2.189-.943s-.254,1.236-1.185,2.068A4.226,4.226,0,0,1,636.948,251.911Z" transform="translate(-472.702 -222.016)" fill="#f2f2f2"/>
    <path id="Path_226" data-name="Path 226" d="M621.036,283.734a4.226,4.226,0,0,1,1.185-2.068c.932-.831,1.912-1.253,2.189-.943s-.254,1.236-1.185,2.068A4.225,4.225,0,0,1,621.036,283.734Z" transform="translate(-461.312 -244.795)" fill="#f2f2f2"/>
    <path id="Path_227" data-name="Path 227" d="M880.015,637.975s-3.44,1.032-5.159,3.1c0,0-3.1,1.376-4.987,1.032s-5.331,3.1-2.58,4.127,19.6,3.783,19.949,2.924.344-9.631.344-9.631Z" transform="translate(-636.848 -500.593)" fill="#575a89"/>
    <path id="Path_228" data-name="Path 228" d="M978.572,632.779s-3.213,1.6-4.555,3.931c0,0-2.815,1.884-4.738,1.869s-4.724,3.961-1.837,4.507,19.963.379,20.155-.527-1.306-9.548-1.306-9.548Z" transform="translate(-708.387 -496.874)" fill="#575a89"/>
    <circle id="Ellipse_294" data-name="Ellipse 294" cx="7.739" cy="7.739" r="7.739" transform="translate(241.017 3.844)" fill="#ffb9b9"/>
    <path id="Path_229" data-name="Path 229" d="M936.21,199.851s.86,5.847,2.408,6.535a11.426,11.426,0,0,1,2.924,2.064l-4.3,2.064L928.815,210s.688-3.783-.516-5.675S936.21,199.851,936.21,199.851Z" transform="translate(-681.177 -186.978)" fill="#ffb9b9"/>
    <path id="Path_230" data-name="Path 230" d="M995.363,297.279s3.955,10.146,0,19.949-5.675,11.35-5.675,11.35l-1.2-12.9,1.384-1.256s.838-3.913.157-6.23.351-9.54.351-9.54Z" transform="translate(-724.337 -256.718)" fill="#ffb9b9"/>
    <path id="Path_231" data-name="Path 231" d="M897.249,358.71s-4.987,11.35-4.471,16.853,4.471,28.72,4.471,28.72-.516,29.923,1.032,29.923,8.943,2.752,8.943.86,1.548-47.293,1.548-47.293,8.771,19.949,9.63,21.5,6.363,25.8,8.255,25.8,7.739-1.72,7.223-2.924-6.363-28.032-9.63-34.911-2.58-32.847-2.58-32.847l-5.5-12.038Z" transform="translate(-655.802 -296.137)" fill="#3f3d56"/>
    <path id="Path_232" data-name="Path 232" d="M911.191,162.611s-4.815-.344-5.159-1.548-1.032-2.236-.688-2.236.516-.86.516-.86.344-.172.516,0,.344-1.2.344-1.2.172-.516.344-.172.172.172.344-.344,1.032-.86,1.032-.86,3.268.172,3.783-.516,6.363-.172,7.567.688,6.535,3.955,5.675,6.535-3.955,8.255-3.955,9.115-1.2.688-1.548-.172-3.1-1.892-3.1-2.408-1.548-5.331-2.408-4.987-1.892,3.1-2.236,2.58A24.575,24.575,0,0,1,911.191,162.611Z" transform="translate(-664.757 -154.554)" fill="#3f3d56"/>
    <path id="Path_233" data-name="Path 233" d="M932.079,233.757s-7.05-10.319-9.113-10.834-6.707-1.892-6.707-1.892-4.643.688-6.019,1.376-6.535,1.892-6.707,3.955,1.376,21.841.516,23.732-3.783,19.949-2.408,19.6.344-4.815,6.363-4.987,9.286-3.783,11.522.516,8.6,7.567,8.6,7.567a41.611,41.611,0,0,1,.688-4.127c.516-2.408-1.376-8.255-1.376-8.255s.172-13.586.86-15.134S932.079,233.757,932.079,233.757Z" transform="translate(-661.914 -202.139)" fill="#6c63ff"/>
    <path id="Path_234" data-name="Path 234" d="M993.224,264.6l2.58.344s-.172,3.439.516,4.471,1.892,6.363,1.2,6.535-6.879,1.2-6.879,1.2l-.345-7.911Z" transform="translate(-725.637 -233.327)" fill="#6c63ff"/>
    <path id="Path_235" data-name="Path 235" d="M871.54,286.387s-1.72,11.178-2.58,12.554-5.159,20.637-5.159,20.637-7.07,9.832-3.63,9.66,7.07-8.972,7.07-8.972,10.662-19.433,10.662-21.5,2.58-12.382,2.58-12.382Z" transform="translate(-631.813 -248.922)" fill="#ffb9b9"/>
    <path id="Path_236" data-name="Path 236" d="M904.2,233.134l-3.1,1.2s-3.955,14.1-3.1,15.306,11.178-.516,11.35-1.032S907.468,233.134,904.2,233.134Z" transform="translate(-659.487 -210.802)" fill="#6c63ff"/>
    <path id="Path_237" data-name="Path 237" d="M155.594,561.532c0,16.756,10.512,30.314,23.5,30.314" transform="translate(-128.143 -445.874)" fill="#46455b"/>
    <path id="Path_238" data-name="Path 238" d="M238.293,590.988c0-16.944,11.73-30.655,26.227-30.655" transform="translate(-187.34 -445.016)" fill="#6c63ff"/>
    <path id="Path_239" data-name="Path 239" d="M185.557,566.877c0,15.916,6.7,28.8,14.987,28.8" transform="translate(-149.59 -449.7)" fill="#6c63ff"/>
    <path id="Path_240" data-name="Path 240" d="M238.293,569.54c0-21.651,13.559-39.17,30.314-39.17" transform="translate(-187.34 -423.568)" fill="#46455b"/>
    <path id="Path_241" data-name="Path 241" d="M220.9,664.418s3.333-.1,4.337-.818,5.127-1.569,5.376-.422,5.009,5.705,1.246,5.736-8.743-.586-9.746-1.2S220.9,664.418,220.9,664.418Z" transform="translate(-174.886 -518.232)" fill="#a8a8a8"/>
    <path id="Path_242" data-name="Path 242" d="M231.922,673.039c-3.763.03-8.743-.586-9.746-1.2-.763-.465-1.068-2.134-1.17-2.9l-.111,0s.211,2.688,1.214,3.3,5.983,1.227,9.746,1.2c1.086-.009,1.461-.4,1.441-.968C233.145,672.817,232.73,673.033,231.922,673.039Z" transform="translate(-174.886 -522.758)" opacity="0.2"/>
  </g>
</svg>
