<svg xmlns="http://www.w3.org/2000/svg" width="1081.999" height="590.893" viewBox="0 0 1081.999 590.893">
  <g id="Group_35" data-name="Group 35" transform="translate(-0.001)">
    <path id="Path_463" data-name="Path 463" d="M800.816,660.08q151.461-1.787,302.912,2.049c8.686.22,17.7.5,25.369,2.8s13.573,7.235,11.475,11.975q-59.121,1.749-118.365,1.081c-8.6,4.213-18.044,10.558-12.758,16.24,3.658,3.932,12.687,5.1,20.582,5.111,14.3.017,28.659-2.331,42.749-.953s28.148,8.788,24.021,16.481c-3.134,5.842-15.025,8.734-25.846,9.25s-21.9-.557-32.478.826c-10.052,1.315-18.76,4.731-28.167,7.115-14.839,3.762-31.289,4.924-47.473,5.913-124.272,7.592-249.574,7.532-374.578,7.463-50.607-.028-101.9-.1-150.77-7.492-27.856-4.211-54.55-10.751-82.758-14.144-33.694-4.053-68.517-3.5-102.973-3.382q-90.735.32-181.316-3.5c-4.494-.189-10.01-.831-11.223-3.27-1.415-2.846,4.329-5.067,9.184-6.2a533.256,533.256,0,0,1,83.659-12.479c14.268-1,28.971-1.514,42.093-4.817s24.586-10.229,24.463-18.308c-.038-2.464-1.077-5.1.979-7.278,2.731-2.891,9.451-3.554,15.248-3.869,64.269-3.493,128.889-4.952,193.45-4.366,22.71.206,45.514.663,68.063-.867,18.476-1.253,36.573-3.827,54.782-5.987,24.442-2.9,130.811-17.923,146.327-5.733,11.616,9.125-12.366,11.094,18.788,14.817C743.382,661.8,773.3,660.4,800.816,660.08Z" transform="translate(-59 -154.554)" fill="#f2f2f2"/>
    <path id="Path_464" data-name="Path 464" d="M407.718,618.4S370.272,692.5,402.141,692.5s433.413,1.593,444.567-19.121c7.815-14.513,3.506-66.178.226-95.813a22.659,22.659,0,0,0-23.776-20.133c-86.843,4.793-411.273,22.557-409.863,20.34,2.789-4.382.8-3.187.8-3.187S401.344,615.217,407.718,618.4Z" transform="translate(-59 -154.554)" fill="#3f3d56"/>
    <path id="Path_465" data-name="Path 465" d="M847.73,577.565a22.659,22.659,0,0,0-23.776-20.133c-86.843,4.793-411.273,22.557-409.863,20.34,2.789-4.382.8-3.187.8-3.187s-2.845,9.071-5.175,18.977c.33-.033.577.278-.5,2.171q-.144.641-.283,1.282c12.994,1.284,324.6-15.779,409.446-20.461a22.659,22.659,0,0,1,23.776,20.133c2.439,22.033,5.445,56.24,3.615,78.306a4.764,4.764,0,0,0,1.736-1.615C855.319,658.865,851.011,607.2,847.73,577.565Z" transform="translate(-59 -154.554)" opacity="0.1"/>
    <path id="Path_466" data-name="Path 466" d="M452.35,507.362c-4.151-1.272-9.4-2.915-8.931-5.594.252-1.423,2.156-2.534,3.536-3.727,2.66-2.3,3.377-5.54.52-7.762s-9.739-2.519-12.26-.168c-1.3,1.209-1.219,2.726-1.888,4.092-2.089,4.261-10.539,6.132-17.718,7.788s-15.211,4.736-14.536,9.144c.736,4.809,11.811,9.075,7.355,13.176-1.616,1.487-5.015,2.317-5.738,4.018-.509,1.2.513,2.414,1.506,3.507l7.052,7.77c2.806,3.091,5.7,6.455,4.757,9.9-1.863,6.82-17,9.43-29,8.663-4.395-.281-9.56-.665-12.579,1.182-2.327,1.423-2.323,3.64-1.55,5.537,1.991,4.883,8.36,9.112,16.511,10.963-9.136,1.8-12.724,9.4-6.416,13.586a18.771,18.771,0,0,1-11.187.321c-3.12,2.872-1.286,6.813,2.671,9.326s9.562,3.926,14.99,5.268l-5.079,4.749c3.676,2.871,11.614,1.859,16.967.044s11.161-4.251,17.159-3.3c5.625.89,9.879,4.642,15.607,4,4.438-.5,6.551-3.35,7.933-5.812l5.878-10.466c8.368,1.309,17.166-4.424,13.805-9,9.364,1.006,18.58-5.075,15.506-10.231,4.987,3.846,8.5,8.314,10.215,13,.768,2.094,1.235,4.307,3.325,6.081a11.045,11.045,0,0,0,9.662,1.748c-1.707,3.311-3.09,7.173.418,9.983s13.634,2.013,13.187-1.43c5.351,2.3,11.347,4.46,18.034,4.632s14.006-2.373,14.615-6.184a93.429,93.429,0,0,0,29.206,4.7c.844-2.55,6.739-3.375,11.147-2.752s8.5,2.121,13.036,2.123,9.423-2.73,7.1-4.96a93.848,93.848,0,0,0,29.088,1.468c9.163-.973,17.846-3.285,27.125-3.783a64.786,64.786,0,0,1,27.613,4.361c3.042,1.275,6.822,2.881,10.164,1.88,1.9-.567,2.817-1.793,4.1-2.77,5.542-4.2,16.875-3.4,25.618-1.745s18.914,3.643,26.575.721c2.891-1.1,5.021-2.806,8.1-3.731,11.015-3.315,24.2,5.18,35.89,2.736,3.807-.8,6.9-2.7,10.929-2.935,7.153-.417,11.88,4.432,18.836,5.474,7.217,1.082,15.04-3.309,13.279-7.454a64.784,64.784,0,0,0,20.483-2.847l-3.276-5.9c8.164-.131,14.169-5.984,10.387-10.122,8.187-1.559,14.66-5.755,16.343-10.594s-1.491-10.131-8.011-13.362c-3.848-1.907-8.9-3.248-11.1-5.873-1.584-1.891-1.353-4.091-1.969-6.158-1.349-4.524-7.194-8.518-14.745-10.076-3.279-.676-6.868-.933-9.837-1.978s-5.114-3.307-3.4-5.043c.907-.919,2.654-1.46,3.783-2.294,4.58-3.382-3.273-7.663-9.977-9.562l16.01-.524,3.438-15.587c-6.334,5.152-22.765,4.068-26.881-1.773,5.143,1.688,12.041-.47,14.555-3.54s1.9-6.641,1.225-10.009a4.857,4.857,0,0,0-2.668-3.975c-1.567-.746-4.064-1.058-4.578-2.186-.524-1.151,1.5-2.169,1.8-3.347.577-2.26-4.617-3.256-8.125-4.349-8.277-2.579-12.284-9.825-21.7-9.59-9.344.234-11.956,7.368-11.962,12.715s-3.168,12.5-12.52,12.4c-3.734-.039-6.99-1.382-9.971-2.667L745,467.712a64.134,64.134,0,0,0-11-3.943c-5.4-1.261-11.37-1.41-17.2-1.542l-37.466-.851a17.451,17.451,0,0,0-5.683.489c-1.968.658-2.924,1.952-4.11,3.065-5.217,4.9-17.482,6.817-26.334,4.119-2.347-.715-4.45-1.7-6.937-2.24-7.834-1.7-16.054,1.443-24.193,2.578-13.343,1.86-29.923-1.342-39.542,4.262-3.207,1.868-4.908,4.423-7.88,6.414s-8.334,3.341-12.082,1.838c.471,3.654.9,7.467-1.574,10.847s-8.818,6.139-15.052,5.286c-3.308-.874-3.047-3.655-1.483-5.537s3.964-3.8,3.184-5.84c-.774-2.019-4.315-3.193-6.963-4.6s-4.414-4.075-1.6-5.374c-1.9-2.436-8.707-2.139-11.7-.1s-3.3,4.919-3.622,7.579-1.039,5.572-4.511,7.352c-5.917,3.033-17.276,1.459-21.2,5.41-1.247,1.255-1.32,2.769-2.033,4.153-3.183,6.179-16.926,7.779-28.16,8.284a13.783,13.783,0,0,0-.156,3.9C461.538,511.6,455.135,508.216,452.35,507.362Z" transform="translate(-59 -154.554)" fill="#61ab43"/>
    <path id="Path_467" data-name="Path 467" d="M841.5,500.3c.671,3.368,1.289,6.939-1.225,10.009a7.684,7.684,0,0,1-1.258,1.191l10.147-.332,3.438-15.587c-2.624,2.134-6.981,3.2-11.478,3.294a10.014,10.014,0,0,1,.377,1.424Z" transform="translate(-59 -154.554)" opacity="0.1"/>
    <path id="Path_468" data-name="Path 468" d="M844.455,518.664c-.4-2.107-3.874-4.245-7.763-5.774a15.806,15.806,0,0,1-10.972.963C828.558,517.882,837.254,519.646,844.455,518.664Z" transform="translate(-59 -154.554)" opacity="0.1"/>
    <path id="Path_469" data-name="Path 469" d="M849.426,530.021l-.263,1.192-16.01.524c6.7,1.9,14.557,6.179,9.977,9.562-1.13.834-2.876,1.375-3.783,2.294-1.714,1.736.431,4,3.4,5.043s6.558,1.3,9.837,1.978c7.551,1.557,13.4,5.552,14.745,10.076.616,2.067.385,4.267,1.97,6.158,2.2,2.626,7.254,3.967,11.1,5.873.371.184.727.376,1.076.573,3.479-1.968,5.98-4.505,6.935-7.251,1.683-4.838-1.491-10.131-8.011-13.362-3.849-1.907-8.9-3.248-11.1-5.873-1.584-1.891-1.353-4.091-1.97-6.158-1.349-4.524-7.194-8.518-14.745-10.076C851.553,530.359,850.49,530.189,849.426,530.021Z" transform="translate(-59 -154.554)" opacity="0.1"/>
    <path id="Path_470" data-name="Path 470" d="M380.378,601.8c1.246-2.653,4.43-5.01,9.005-5.912a30.464,30.464,0,0,1-12.064-5.442,18.222,18.222,0,0,1-5.539-.693c-3.12,2.872-1.286,6.813,2.671,9.326A28.735,28.735,0,0,0,380.378,601.8Z" transform="translate(-59 -154.554)" opacity="0.1"/>
    <path id="Path_471" data-name="Path 471" d="M408.618,524.115a53.272,53.272,0,0,1,6.991-2.083c7.179-1.655,15.629-3.526,17.718-7.788.67-1.366.591-2.883,1.888-4.092,2.521-2.351,9.4-2.054,12.26.168s2.14,5.462-.52,7.762c-1.38,1.193-3.284,2.3-3.536,3.727-.473,2.679,4.78,4.321,8.931,5.594a17.651,17.651,0,0,1,5.405,2.851c.035-.284.069-.568.1-.849,11.233-.5,24.976-2.1,28.16-8.284.713-1.384.787-2.9,2.033-4.153,3.924-3.951,15.283-2.377,21.2-5.41,3.472-1.78,4.184-4.693,4.511-7.352s.626-5.536,3.623-7.579,9.808-2.34,11.7.1c-2.812,1.3-1.046,3.967,1.6,5.374s6.189,2.582,6.963,4.6c.78,2.035-1.62,3.958-3.184,5.84s-1.825,4.662,1.483,5.537c6.233.852,12.578-1.906,15.052-5.286s2.045-7.193,1.574-10.847c3.748,1.5,9.11.153,12.082-1.838s4.673-4.546,7.88-6.414c9.619-5.6,26.2-2.4,39.541-4.262,8.139-1.135,16.359-4.276,24.193-2.578,2.487.539,4.59,1.525,6.937,2.24,8.852,2.7,21.118.779,26.334-4.119,1.185-1.113,2.142-2.408,4.11-3.065a17.451,17.451,0,0,1,5.683-.489l37.466.851c5.83.132,11.8.281,17.2,1.542a64.13,64.13,0,0,1,11,3.943L771.777,499.3c2.981,1.286,6.237,2.629,9.971,2.667,9.351.1,12.513-7.053,12.52-12.4s2.618-12.481,11.962-12.715c9.417-.236,13.425,7.011,21.7,9.59,3.508,1.093,8.7,2.089,8.125,4.349-.268,1.049-1.9,1.971-1.885,2.974a12.327,12.327,0,0,0,6.1-3.5c2.514-3.07,1.9-6.641,1.225-10.009a4.856,4.856,0,0,0-2.668-3.975c-1.567-.746-4.064-1.058-4.578-2.186-.524-1.151,1.5-2.169,1.8-3.347.577-2.26-4.617-3.256-8.125-4.349-8.277-2.579-12.284-9.825-21.7-9.59-9.344.234-11.955,7.368-11.962,12.715s-3.168,12.5-12.52,12.4c-3.734-.039-6.99-1.382-9.971-2.667L745,467.713a64.139,64.139,0,0,0-11-3.943c-5.4-1.261-11.37-1.41-17.2-1.542l-37.466-.851a17.453,17.453,0,0,0-5.683.489c-1.968.658-2.924,1.952-4.11,3.065-5.217,4.9-17.482,6.817-26.334,4.119-2.347-.715-4.45-1.7-6.937-2.24-7.834-1.7-16.054,1.443-24.193,2.578-13.342,1.86-29.923-1.342-39.541,4.262-3.207,1.868-4.908,4.423-7.88,6.414s-8.334,3.341-12.082,1.838c.471,3.654.9,7.467-1.574,10.847s-8.818,6.139-15.052,5.286c-3.308-.874-3.047-3.655-1.483-5.537s3.964-3.8,3.184-5.84c-.774-2.019-4.315-3.193-6.963-4.6s-4.414-4.075-1.6-5.374c-1.9-2.436-8.707-2.139-11.7-.1s-3.3,4.919-3.623,7.579-1.039,5.572-4.511,7.352c-5.917,3.033-17.276,1.459-21.2,5.41-1.247,1.255-1.32,2.769-2.033,4.153-3.183,6.179-16.926,7.779-28.16,8.284-.027.281-.062.565-.1.849a17.651,17.651,0,0,0-5.405-2.851c-4.151-1.272-9.4-2.915-8.931-5.593.252-1.423,2.156-2.534,3.536-3.727,2.66-2.3,3.377-5.54.52-7.762s-9.739-2.519-12.26-.168c-1.3,1.209-1.219,2.726-1.888,4.092-2.089,4.261-10.539,6.132-17.718,7.788s-15.211,4.736-14.536,9.144C401.8,515.868,412.522,520.075,408.618,524.115Z" transform="translate(-59 -154.554)" opacity="0.1"/>
    <path id="Path_472" data-name="Path 472" d="M389.383,575.847a15.736,15.736,0,0,0-5.557,2.175c1.075.047,2.146.118,3.175.183,12,.766,27.14-1.843,29-8.663.94-3.441-1.951-6.8-4.757-9.9l-3.383-3.728c-5.871,2-13.894,2.691-20.862,2.246-4.394-.281-9.56-.665-12.579,1.182-2.327,1.423-2.323,3.64-1.55,5.537C374.863,569.767,381.232,574,389.383,575.847Z" transform="translate(-59 -154.554)" opacity="0.1"/>
    <ellipse id="Ellipse_389" data-name="Ellipse 389" cx="119.507" cy="78.875" rx="119.507" ry="78.875" transform="translate(455.281 232.357)" fill="#ea565c"/>
    <path id="Path_473" data-name="Path 473" d="M593.156,460.209s-54.177,5.577-38.242-17.528,35.852-31.072,45.413-24.7,13.544,23.9,11.951,23.9-24.7-13.544-32.665-3.187S593.156,460.209,593.156,460.209Z" transform="translate(-59 -154.554)" fill="#fff" opacity="0.2"/>
    <path id="Path_474" data-name="Path 474" d="M640.1,462.467s44.738,31.06,17.6,38.21-47.443.221-50.544-10.843,5.293-26.957,6.5-25.919,9.916,26.365,22.708,23.7S640.1,462.467,640.1,462.467Z" transform="translate(-59 -154.554)" fill="#fff" opacity="0.2"/>
    <path id="Path_475" data-name="Path 475" d="M650.543,443s3.531-54.348,23.656-34.786,24.662,40.53,16.784,48.894-25.825,9.371-25.559,7.8,17.471-22.1,8.587-31.677S650.543,443,650.543,443Z" transform="translate(-59 -154.554)" fill="#fff" opacity="0.2"/>
    <ellipse id="Ellipse_390" data-name="Ellipse 390" cx="119.507" cy="78.875" rx="119.507" ry="78.875" transform="translate(311.076 225.983)" fill="#ea565c"/>
    <path id="Path_476" data-name="Path 476" d="M448.95,453.835s-54.177,5.577-38.242-17.528,35.852-31.072,45.413-24.7,13.544,23.9,11.951,23.9-24.7-13.544-32.665-3.187S448.95,453.835,448.95,453.835Z" transform="translate(-59 -154.554)" fill="#fff" opacity="0.2"/>
    <path id="Path_477" data-name="Path 477" d="M495.893,456.093s44.738,31.06,17.6,38.21-47.443.221-50.544-10.843,5.293-26.957,6.5-25.919,9.916,26.365,22.708,23.7S495.893,456.093,495.893,456.093Z" transform="translate(-59 -154.554)" fill="#fff" opacity="0.2"/>
    <path id="Path_478" data-name="Path 478" d="M506.337,436.628s3.531-54.348,23.656-34.786,24.662,40.529,16.784,48.894-25.825,9.371-25.559,7.8,17.471-22.1,8.587-31.677S506.337,436.628,506.337,436.628Z" transform="translate(-59 -154.554)" fill="#fff" opacity="0.2"/>
    <path id="Path_479" data-name="Path 479" d="M551.775,392.286c26.031,14.469,42.576,36.134,42.576,60.354,0,43.561-53.505,78.875-119.507,78.875-22.616,0-43.763-4.147-61.794-11.351,20.789,11.555,47.625,18.521,76.932,18.521,66,0,119.507-35.314,119.507-78.875C609.488,431.175,586.367,406.106,551.775,392.286Z" transform="translate(-59 -154.554)" opacity="0.1"/>
    <path id="Path_480" data-name="Path 480" d="M695.981,397.863c26.031,14.469,42.576,36.134,42.576,60.354,0,43.561-53.505,78.875-119.507,78.875-22.615,0-43.763-4.147-61.794-11.351,20.789,11.555,47.625,18.521,76.932,18.521,66,0,119.507-35.314,119.507-78.875C753.694,436.752,730.572,411.683,695.981,397.863Z" transform="translate(-59 -154.554)" opacity="0.1"/>
    <path id="Path_481" data-name="Path 481" d="M416.955,444.3s102.776-109.947,354.538-64.534c199.02,35.9,35.591,97.687-41.618,122A277.4,277.4,0,0,1,660.817,514.2C573.714,518.687,354.625,522.7,416.955,444.3Z" transform="translate(-59 -154.554)" fill="#714b4f"/>
    <path id="Path_482" data-name="Path 482" d="M729.875,477.07A277.4,277.4,0,0,1,660.817,489.5c-70.562,3.634-227.736,6.953-251.75-33.6-30.322,65.54,169.523,61.732,251.75,57.5a277.4,277.4,0,0,0,69.058-12.434c56.593-17.821,159.5-55.776,132.052-88.912C843.446,438.064,773.132,463.448,729.875,477.07Z" transform="translate(-59 -154.554)" opacity="0.1"/>
    <line id="Line_36" data-name="Line 36" x2="27.885" y2="54.974" transform="translate(577.45 225.612)" fill="none" stroke="#000" stroke-miterlimit="10" stroke-width="2" opacity="0.1"/>
    <line id="Line_37" data-name="Line 37" x2="23.901" y2="46.21" transform="translate(491.405 245.53)" fill="none" stroke="#000" stroke-miterlimit="10" stroke-width="2" opacity="0.1"/>
    <line id="Line_38" data-name="Line 38" x2="37.446" y2="54.974" transform="translate(627.643 225.612)" fill="none" stroke="#000" stroke-miterlimit="10" stroke-width="2" opacity="0.1"/>
    <line id="Line_39" data-name="Line 39" y1="31.869" x2="250.965" transform="translate(491.405 264.651)" fill="none" stroke="#000" stroke-miterlimit="10" stroke-width="2" opacity="0.1"/>
    <line id="Line_40" data-name="Line 40" x2="17.528" y2="24.698" transform="translate(732.809 235.97)" fill="none" stroke="#000" stroke-miterlimit="10" stroke-width="2" opacity="0.1"/>
    <line id="Line_41" data-name="Line 41" x2="11.154" y2="23.105" transform="translate(442.009 264.651)" fill="none" stroke="#000" stroke-miterlimit="10" stroke-width="2" opacity="0.1"/>
    <path id="Path_483" data-name="Path 483" d="M538.471,344.356s229.182-1.037,231.285-3.111,50.462-3.172,59.924,10.307,12.615,19.7,0,21.773S401.8,587.951,401.8,587.951s-23.129,2.074-11.564-20.737S538.471,344.356,538.471,344.356Z" transform="translate(-59 -154.554)" fill="#f6c964"/>
    <path id="Path_484" data-name="Path 484" d="M634.688,439.161c0,8.58-41.377,29.478-92.419,29.478s-92.419-20.9-92.419-29.478,41.377-11.95,92.419-11.95S634.688,430.581,634.688,439.161Z" transform="translate(-59 -154.554)" fill="#61ab43"/>
    <ellipse id="Ellipse_391" data-name="Ellipse 391" cx="92.419" cy="15.536" rx="92.419" ry="15.536" transform="translate(390.85 268.673)" fill="#61ab43"/>
    <path id="Path_485" data-name="Path 485" d="M746.228,424.82c0,8.58-41.377,29.478-92.419,29.478S561.39,433.4,561.39,424.82s41.377-11.951,92.419-11.951S746.228,416.24,746.228,424.82Z" transform="translate(-59 -154.554)" fill="#61ab43"/>
    <ellipse id="Ellipse_392" data-name="Ellipse 392" cx="92.419" cy="15.536" rx="92.419" ry="15.536" transform="translate(502.39 254.332)" fill="#61ab43"/>
    <path id="Path_486" data-name="Path 486" d="M857.768,410.48c0,8.58-41.377,29.478-92.419,29.478s-92.419-20.9-92.419-29.478,41.377-11.951,92.419-11.951S857.768,401.9,857.768,410.48Z" transform="translate(-59 -154.554)" fill="#61ab43"/>
    <ellipse id="Ellipse_393" data-name="Ellipse 393" cx="92.419" cy="15.536" rx="92.419" ry="15.536" transform="translate(613.93 239.992)" fill="#61ab43"/>
    <path id="Path_487" data-name="Path 487" d="M424.988,414.893s-38.01-6.188-18.563-37.126,25.988-65.62,34.474-73.369c9.488-8.663,205.313-160.543,357.87,7.521a224.214,224.214,0,0,1,38.9,60.751c1.845,4.2,3.88,7.97,5.869,9.959,6.188,6.188,11.492,23.867,0,32.707S493.495,458.649,424.988,414.893Z" transform="translate(-59 -154.554)" fill="#3f3d56"/>
    <path id="Path_488" data-name="Path 488" d="M603.106,286.277a14.869,14.869,0,0,1-7.956,2.652c-4.394,0-7.956-1.187-7.956-2.652s3.562-2.652,7.956-2.652a14.87,14.87,0,0,1,7.956,2.652Z" transform="translate(-59 -154.554)" fill="#f2f2f2"/>
    <path id="Path_489" data-name="Path 489" d="M539.461,269.482a14.87,14.87,0,0,1-7.956,2.652c-4.394,0-7.956-1.187-7.956-2.652s3.562-2.652,7.956-2.652a14.87,14.87,0,0,1,7.956,2.652Z" transform="translate(-59 -154.554)" fill="#f2f2f2"/>
    <path id="Path_490" data-name="Path 490" d="M712.354,293.956a14.869,14.869,0,0,1-8.385.156c-4.193-1.312-7.238-3.508-6.8-4.906s4.191-1.467,8.385-.156a14.869,14.869,0,0,1,6.8,4.906Z" transform="translate(-59 -154.554)" fill="#f2f2f2"/>
    <path id="Path_491" data-name="Path 491" d="M594.787,248.874a14.87,14.87,0,0,1-8.385.156c-4.193-1.312-7.238-3.508-6.8-4.906s4.191-1.467,8.385-.156a14.87,14.87,0,0,1,6.8,4.906Z" transform="translate(-59 -154.554)" fill="#f2f2f2"/>
    <path id="Path_492" data-name="Path 492" d="M722.961,264.786a14.87,14.87,0,0,1-8.385.156c-4.193-1.312-7.238-3.508-6.8-4.906s4.191-1.467,8.385-.156a14.869,14.869,0,0,1,6.8,4.906Z" transform="translate(-59 -154.554)" fill="#f2f2f2"/>
    <path id="Path_493" data-name="Path 493" d="M696.8,262.41a14.869,14.869,0,0,1-7.956,2.652c-4.394,0-7.956-1.187-7.956-2.652s3.562-2.652,7.956-2.652a14.87,14.87,0,0,1,7.956,2.652Z" transform="translate(-59 -154.554)" fill="#f2f2f2"/>
    <path id="Path_494" data-name="Path 494" d="M620.785,246.5a14.87,14.87,0,0,1-7.956,2.652c-4.394,0-7.956-1.187-7.956-2.652s3.562-2.652,7.956-2.652A14.87,14.87,0,0,1,620.785,246.5Z" transform="translate(-59 -154.554)" fill="#f2f2f2"/>
    <path id="Path_495" data-name="Path 495" d="M679.126,246.5a14.87,14.87,0,0,1-7.956,2.652c-4.394,0-7.956-1.187-7.956-2.652s3.562-2.652,7.956-2.652a14.87,14.87,0,0,1,7.956,2.652Z" transform="translate(-59 -154.554)" fill="#f2f2f2"/>
    <path id="Path_496" data-name="Path 496" d="M657.027,280.973a14.87,14.87,0,0,1-7.956,2.652c-4.394,0-7.956-1.187-7.956-2.652s3.562-2.652,7.956-2.652A14.869,14.869,0,0,1,657.027,280.973Z" transform="translate(-59 -154.554)" fill="#f2f2f2"/>
    <path id="Path_497" data-name="Path 497" d="M592.75,274.778a14.87,14.87,0,0,1,4.171-7.275c3.279-2.925,6.727-4.411,7.7-3.318s-.892,4.35-4.171,7.275a14.87,14.87,0,0,1-7.7,3.318Z" transform="translate(-59 -154.554)" fill="#f2f2f2"/>
    <path id="Path_498" data-name="Path 498" d="M552.971,265.055a14.869,14.869,0,0,1,4.171-7.275c3.279-2.925,6.727-4.411,7.7-3.318s-.892,4.35-4.171,7.275a14.869,14.869,0,0,1-7.7,3.318Z" transform="translate(-59 -154.554)" fill="#f2f2f2"/>
    <path id="Path_499" data-name="Path 499" d="M484.023,312.789a14.87,14.87,0,0,1,4.171-7.275c3.278-2.925,6.727-4.411,7.7-3.318s-.892,4.35-4.171,7.275a14.869,14.869,0,0,1-7.7,3.318Z" transform="translate(-59 -154.554)" fill="#f2f2f2"/>
    <path id="Path_500" data-name="Path 500" d="M636.948,259.751a14.87,14.87,0,0,1,4.171-7.275c3.278-2.925,6.727-4.411,7.7-3.318s-.892,4.35-4.171,7.275A14.87,14.87,0,0,1,636.948,259.751Z" transform="translate(-59 -154.554)" fill="#f2f2f2"/>
    <path id="Path_501" data-name="Path 501" d="M621.036,291.574a14.87,14.87,0,0,1,4.171-7.275c3.278-2.925,6.727-4.411,7.7-3.318s-.892,4.35-4.171,7.275a14.869,14.869,0,0,1-7.7,3.318Z" transform="translate(-59 -154.554)" fill="#f2f2f2"/>
    <path id="Path_502" data-name="Path 502" d="M914.657,637.975s-12.1,3.631-18.154,10.893c0,0-10.893,4.841-17.549,3.631s-18.76,10.893-9.077,14.523,68.986,13.313,70.2,10.287,1.21-33.888,1.21-33.888Z" transform="translate(-59 -154.554)" fill="#575a89"/>
    <path id="Path_503" data-name="Path 503" d="M1009.73,632.779s-11.3,5.645-16.027,13.833c0,0-9.906,6.63-16.671,6.575s-16.623,13.937-6.463,15.86,70.247,1.334,70.922-1.854-4.6-33.6-4.6-33.6Z" transform="translate(-59 -154.554)" fill="#575a89"/>
    <circle id="Ellipse_394" data-name="Ellipse 394" cx="27.232" cy="27.232" r="27.232" transform="translate(848.093 13.527)" fill="#ffb9b9"/>
    <path id="Path_504" data-name="Path 504" d="M956.412,199.851s3.026,20.575,8.472,23a40.206,40.206,0,0,1,10.287,7.262l-15.129,7.262-29.652-1.815s2.421-13.313-1.815-19.97S956.412,199.851,956.412,199.851Z" transform="translate(-59 -154.554)" fill="#ffb9b9"/>
    <path id="Path_505" data-name="Path 505" d="M1012.69,297.279s13.918,35.7,0,70.2-19.97,39.94-19.97,39.94l-4.236-45.386,4.871-4.419s2.95-13.769.552-21.922,1.234-33.569,1.234-33.569Z" transform="translate(-59 -154.554)" fill="#ffb9b9"/>
    <path id="Path_506" data-name="Path 506" d="M908.606,374.738s-17.549,39.939-15.734,59.3S908.606,535.1,908.606,535.1,906.791,640.4,912.237,640.4s31.468,9.682,31.468,3.026,5.446-166.415,5.446-166.415,30.862,70.2,33.888,75.643,22.39,90.772,29.047,90.772,27.231-6.051,25.416-10.287-22.39-98.638-33.888-122.844-9.078-115.583-9.078-115.583l-19.365-42.36Z" transform="translate(-59 -154.554)" fill="#3f3d56"/>
    <path id="Path_507" data-name="Path 507" d="M926.155,182.907S909.211,181.7,908,177.461s-3.631-7.867-2.421-7.867,1.815-3.026,1.815-3.026,1.21-.605,1.815,0,1.21-4.236,1.21-4.236.605-1.815,1.21-.605.605.605,1.21-1.21,3.631-3.026,3.631-3.026,11.5.605,13.313-1.815,22.39-.605,26.626,2.421,23,13.918,19.97,23-13.918,29.047-13.918,32.073-4.236,2.421-5.446-.605-10.893-6.657-10.893-8.472-5.446-18.76-8.472-17.549-6.657,10.893-7.867,9.077S926.155,182.907,926.155,182.907Z" transform="translate(-59 -154.554)" fill="#3f3d56"/>
    <path id="Path_508" data-name="Path 508" d="M1009.66,265.812s-24.806-36.309-32.068-38.124-23.6-6.657-23.6-6.657-16.339,2.421-21.18,4.841-23,6.657-23.6,13.918,4.841,76.853,1.815,83.51-13.313,70.2-8.472,68.986,1.21-16.944,22.39-17.549,32.678-13.313,40.545,1.815,30.257,26.626,30.257,26.626a146.419,146.419,0,0,1,2.421-14.524c1.815-8.472-4.841-29.047-4.841-29.047s.605-47.806,3.026-53.253S1009.66,265.812,1009.66,265.812Z" transform="translate(-59 -154.554)" fill="#6c63ff"/>
    <path id="Path_509" data-name="Path 509" d="M1000.59,264.6l9.077,1.21s-.605,12.1,1.815,15.734,6.657,22.39,4.236,23-24.206,4.236-24.206,4.236L990.3,280.94Z" transform="translate(-59 -154.554)" fill="#6c63ff"/>
    <path id="Path_510" data-name="Path 510" d="M902.554,286.387s-6.051,39.334-9.077,44.176-18.154,72.617-18.154,72.617-24.878,34.6-12.775,33.991,24.878-31.57,24.878-31.57,37.519-68.381,37.519-75.643,9.077-43.57,9.077-43.57Z" transform="translate(-59 -154.554)" fill="#ffb9b9"/>
    <path id="Path_511" data-name="Path 511" d="M920.1,233.134,909.21,237.37s-13.918,49.622-10.893,53.858,39.334-1.815,39.94-3.631S931.6,233.134,920.1,233.134Z" transform="translate(-59 -154.554)" fill="#6c63ff"/>
    <path id="Path_512" data-name="Path 512" d="M155.594,561.532c0,58.96,36.989,106.67,82.7,106.67" transform="translate(-59 -154.554)" fill="#46455b"/>
    <path id="Path_513" data-name="Path 513" d="M238.293,668.2c0-59.623,41.277-107.869,92.288-107.869" transform="translate(-59 -154.554)" fill="#6c63ff"/>
    <path id="Path_514" data-name="Path 514" d="M185.557,566.877c0,56.006,23.587,101.325,52.736,101.325" transform="translate(-59 -154.554)" fill="#6c63ff"/>
    <path id="Path_515" data-name="Path 515" d="M238.293,668.2c0-76.185,47.71-137.832,106.67-137.832" transform="translate(-59 -154.554)" fill="#46455b"/>
    <path id="Path_516" data-name="Path 516" d="M220.9,668.954s11.728-.361,15.263-2.878,18.041-5.522,18.918-1.486,17.625,20.076,4.384,20.183-30.766-2.062-34.294-4.211S220.9,668.954,220.9,668.954Z" transform="translate(-59 -154.554)" fill="#a8a8a8"/>
    <path id="Path_517" data-name="Path 517" d="M259.7,683.368c-13.241.107-30.766-2.062-34.294-4.211-2.687-1.636-3.757-7.509-4.115-10.218-.248.011-.392.015-.392.015s.743,9.459,4.271,11.608,21.053,4.318,34.294,4.211c3.822-.031,5.142-1.391,5.07-3.4C264,682.585,262.541,683.345,259.7,683.368Z" transform="translate(-59 -154.554)" opacity="0.2"/>
  </g>
</svg>
