<svg xmlns="http://www.w3.org/2000/svg" width="43" height="30" viewBox="0 0 43 30">
  <g id="Group_9" data-name="Group 9" transform="translate(-161 -198)">
    <circle id="Ellipse_114" data-name="Ellipse 114" cx="2" cy="2" r="2" transform="translate(191 228) rotate(180)" fill="rgba(124,112,204,0.82)"/>
    <circle id="Ellipse_120" data-name="Ellipse 120" cx="2" cy="2" r="2" transform="translate(191 215) rotate(180)" fill="rgba(124,112,204,0.82)"/>
    <circle id="Ellipse_123" data-name="Ellipse 123" cx="2" cy="2" r="2" transform="translate(191 202) rotate(180)" fill="rgba(124,112,204,0.82)"/>
    <circle id="Ellipse_115" data-name="Ellipse 115" cx="2" cy="2" r="2" transform="translate(178 228) rotate(180)" fill="rgba(124,112,204,0.82)"/>
    <circle id="Ellipse_121" data-name="Ellipse 121" cx="2" cy="2" r="2" transform="translate(178 215) rotate(180)" fill="rgba(124,112,204,0.82)"/>
    <circle id="Ellipse_124" data-name="Ellipse 124" cx="2" cy="2" r="2" transform="translate(178 202) rotate(180)" fill="rgba(124,112,204,0.82)"/>
    <circle id="Ellipse_99" data-name="Ellipse 99" cx="2" cy="2" r="2" transform="translate(204 228) rotate(180)" fill="rgba(124,112,204,0.82)"/>
    <circle id="Ellipse_117" data-name="Ellipse 117" cx="2" cy="2" r="2" transform="translate(165 228) rotate(180)" fill="rgba(124,112,204,0.82)"/>
    <circle id="Ellipse_104" data-name="Ellipse 104" cx="2" cy="2" r="2" transform="translate(204 215) rotate(180)" fill="rgba(124,112,204,0.82)"/>
    <circle id="Ellipse_122" data-name="Ellipse 122" cx="2" cy="2" r="2" transform="translate(165 215) rotate(180)" fill="rgba(124,112,204,0.82)"/>
    <circle id="Ellipse_107" data-name="Ellipse 107" cx="2" cy="2" r="2" transform="translate(204 202) rotate(180)" fill="rgba(124,112,204,0.82)"/>
    <circle id="Ellipse_125" data-name="Ellipse 125" cx="2" cy="2" r="2" transform="translate(165 202) rotate(180)" fill="rgba(124,112,204,0.82)"/>
  </g>
</svg>
